<svg xmlns="http://www.w3.org/2000/svg" viewBox="0 0 470.78 256.95"><defs><style>.cls-1{fill:#fff;}.cls-2{fill:#f4cb95;}.cls-3{fill:#8c0613;}.cls-11,.cls-13,.cls-15,.cls-4,.cls-5,.cls-6,.cls-8{fill:none;stroke-miterlimit:10;}.cls-4,.cls-5,.cls-6{stroke:red;}.cls-13,.cls-15,.cls-4,.cls-5,.cls-6{stroke-width:2px;}.cls-5{stroke-dasharray:1.98 1.98;}.cls-6{stroke-dasharray:2.02 2.02;}.cls-7{fill:#ccc;}.cls-8{stroke:#29abe2;}.cls-11,.cls-8{stroke-width:4px;}.cls-9{fill:#29abe2;}.cls-10{fill:#0896a5;}.cls-11{stroke:#006837;}.cls-12{fill:#006837;}.cls-13{stroke:#c1272d;}.cls-14{fill:#c1272d;}.cls-15{stroke:#1b1464;stroke-dasharray:2;}</style></defs><title>modelo_cajas1</title><g id="fondo"><rect class="cls-1" x="27" y="16.5" width="417" height="208"/><rect class="cls-2" x="85" y="16.5" width="317" height="21"/><path class="cls-3" d="M55.68,56.18A14.06,14.06,0,0,1,58,56a4.55,4.55,0,0,1,2.39.45,1.78,1.78,0,0,1,1,1.59,1.81,1.81,0,0,1-1.33,1.72v0a2,2,0,0,1,1.6,2,2.14,2.14,0,0,1-.83,1.71,5.1,5.1,0,0,1-3.18.74,14.17,14.17,0,0,1-2-.12Zm1.81,3.09h.6c1,0,1.47-.39,1.47-1s-.46-.93-1.29-.93a4.27,4.27,0,0,0-.78,0Zm0,3.59a7,7,0,0,0,.71,0c.82,0,1.56-.31,1.56-1.16s-.74-1.14-1.65-1.14h-.62Z"/><path class="cls-3" d="M70.33,60c0,2.65-1.61,4.25-4,4.25s-3.81-1.81-3.81-4.11a3.91,3.91,0,0,1,3.94-4.23A3.77,3.77,0,0,1,70.33,60Zm-5.84.1c0,1.59.74,2.7,2,2.7s2-1.17,2-2.74-.7-2.7-2-2.7S64.49,58.56,64.49,60.13Z"/><path class="cls-3" d="M71.53,56.18A15.48,15.48,0,0,1,74,56a4.19,4.19,0,0,1,2.62.63,2.06,2.06,0,0,1,.74,1.69,2.16,2.16,0,0,1-1.42,2v0A2.07,2.07,0,0,1,77,61.87c.25.91.5,2,.65,2.28H75.76a10.55,10.55,0,0,1-.56-1.88c-.22-1-.56-1.28-1.31-1.3h-.55v3.18H71.53Zm1.81,3.47h.72c.91,0,1.45-.45,1.45-1.16s-.5-1.11-1.34-1.13a5,5,0,0,0-.83.06Z"/><path class="cls-3" d="M78.65,56.18A15.94,15.94,0,0,1,81.12,56a5.2,5.2,0,0,1,3.31.86,3.58,3.58,0,0,1,1.36,3.05,4.08,4.08,0,0,1-1.34,3.27,5.79,5.79,0,0,1-3.73,1,15.63,15.63,0,0,1-2.07-.12Zm1.83,6.59a3.08,3.08,0,0,0,.64,0A2.51,2.51,0,0,0,83.85,60a2.32,2.32,0,0,0-2.54-2.57,4.33,4.33,0,0,0-.83.07Z"/><path class="cls-3" d="M91.81,60.73h-3v1.92h3.33v1.5H87V56.07h5v1.5H88.83v1.68h3Z"/><path class="cls-3" d="M93.41,56.18A15.39,15.39,0,0,1,95.84,56a4.19,4.19,0,0,1,2.62.63,2.09,2.09,0,0,1,.74,1.69,2.15,2.15,0,0,1-1.43,2v0a2,2,0,0,1,1.08,1.51,22.54,22.54,0,0,0,.66,2.28H97.64a10.55,10.55,0,0,1-.56-1.88c-.22-1-.57-1.28-1.31-1.3h-.55v3.18H93.41Zm1.81,3.47h.72c.91,0,1.45-.45,1.45-1.16s-.51-1.11-1.35-1.13a4.89,4.89,0,0,0-.82.06Z"/></g><g id="contenido"><polyline class="cls-4" points="343 188.5 343 189.5 342 189.5"/><line class="cls-5" x1="340.02" y1="189.5" x2="130.99" y2="189.5"/><polyline class="cls-4" points="130 189.5 129 189.5 129 188.5"/><line class="cls-6" x1="129" y1="186.48" x2="129" y2="74.51"/><polyline class="cls-4" points="129 73.5 129 72.5 130 72.5"/><line class="cls-5" x1="131.98" y1="72.5" x2="341.01" y2="72.5"/><polyline class="cls-4" points="342 72.5 343 72.5 343 73.5"/><line class="cls-6" x1="343" y1="75.52" x2="343" y2="187.49"/><rect class="cls-7" x="178" y="101.5" width="106" height="58"/><path d="M187.06,123.26a5.2,5.2,0,0,1-2.13.38,3.78,3.78,0,0,1-4-4.09,4,4,0,0,1,4.22-4.25,4.37,4.37,0,0,1,1.92.36l-.25.86a3.69,3.69,0,0,0-1.63-.34,3,3,0,0,0-3.15,3.33,2.93,2.93,0,0,0,3.1,3.25,4.22,4.22,0,0,0,1.7-.33Z"/><path d="M193.46,120.57a2.83,2.83,0,0,1-2.89,3.08,2.76,2.76,0,0,1-2.79-3,2.84,2.84,0,0,1,2.88-3.09A2.75,2.75,0,0,1,193.46,120.57Zm-4.61.06c0,1.27.73,2.23,1.76,2.23s1.77-1,1.77-2.25c0-1-.49-2.23-1.74-2.23S188.85,119.53,188.85,120.63Z"/><path d="M194.79,119.29c0-.6,0-1.1,0-1.57h.94l.06,1h0a2.14,2.14,0,0,1,1.92-1.09c.81,0,2,.48,2,2.47v3.47h-1v-3.35c0-.93-.35-1.71-1.35-1.71a1.5,1.5,0,0,0-1.41,1.08,1.45,1.45,0,0,0-.07.49v3.49h-1.06Z"/><path d="M202.68,116.05v1.67h1.51v.8h-1.51v3.13c0,.72.2,1.13.79,1.13a2.13,2.13,0,0,0,.61-.08l0,.8a2.73,2.73,0,0,1-.94.14,1.49,1.49,0,0,1-1.14-.44,2.17,2.17,0,0,1-.41-1.51v-3.17h-.9v-.8h.9v-1.4Z"/><path d="M205.89,120.81a1.86,1.86,0,0,0,2,2,3.8,3.8,0,0,0,1.61-.3l.18.76a4.67,4.67,0,0,1-1.93.36,2.7,2.7,0,0,1-2.86-2.93c0-1.75,1-3.13,2.73-3.13a2.46,2.46,0,0,1,2.39,2.74,4.88,4.88,0,0,1,0,.49Zm3.1-.76a1.5,1.5,0,0,0-1.47-1.71,1.75,1.75,0,0,0-1.62,1.71Z"/><path d="M211.31,119.29c0-.6,0-1.1,0-1.57h.93l.06,1h0a2.13,2.13,0,0,1,1.92-1.09c.8,0,2,.48,2,2.47v3.47H215.2v-3.35c0-.93-.35-1.71-1.34-1.71a1.5,1.5,0,0,0-1.42,1.08,1.45,1.45,0,0,0-.07.49v3.49h-1.06Z"/><path d="M219.15,116.08a.62.62,0,0,1-.67.65.63.63,0,0,1-.64-.65.65.65,0,0,1,.66-.66A.63.63,0,0,1,219.15,116.08ZM218,123.52v-5.8H219v5.8Z"/><path d="M225.8,115v7c0,.52,0,1.1,0,1.5h-.94l-.05-1h0a2.16,2.16,0,0,1-2,1.14c-1.41,0-2.49-1.19-2.49-3,0-1.93,1.19-3.12,2.61-3.12a2,2,0,0,1,1.75.89h0V115Zm-1.06,5.08a1.77,1.77,0,0,0-.05-.45,1.54,1.54,0,0,0-1.52-1.22c-1.09,0-1.74,1-1.74,2.24s.58,2.15,1.72,2.15a1.59,1.59,0,0,0,1.54-1.26,1.64,1.64,0,0,0,.05-.45Z"/><path d="M232.8,120.57a2.83,2.83,0,0,1-2.89,3.08,2.76,2.76,0,0,1-2.78-3,2.84,2.84,0,0,1,2.88-3.09A2.74,2.74,0,0,1,232.8,120.57Zm-4.6.06c0,1.27.73,2.23,1.76,2.23s1.77-1,1.77-2.25c0-1-.5-2.23-1.74-2.23S228.2,119.53,228.2,120.63Z"/><path d="M233.89,118.67a.71.71,0,0,1,.72-.75.75.75,0,0,1,0,1.5A.71.71,0,0,1,233.89,118.67Zm0,4.24a.71.71,0,0,1,.72-.76.7.7,0,0,1,.7.76.71.71,0,1,1-1.42,0Z"/><path d="M240.44,116.05v1.67H242v.8h-1.51v3.13c0,.72.2,1.13.79,1.13a2.08,2.08,0,0,0,.61-.08l0,.8a2.69,2.69,0,0,1-.94.14,1.5,1.5,0,0,1-1.14-.44,2.17,2.17,0,0,1-.4-1.51v-3.17h-.9v-.8h.9v-1.4Z"/><path d="M243.66,120.81a1.85,1.85,0,0,0,2,2,3.75,3.75,0,0,0,1.6-.3l.18.76a4.63,4.63,0,0,1-1.93.36,2.69,2.69,0,0,1-2.85-2.93c0-1.75,1-3.13,2.72-3.13a2.46,2.46,0,0,1,2.4,2.74,4.35,4.35,0,0,1,0,.49Zm3.09-.76a1.5,1.5,0,0,0-1.46-1.71,1.74,1.74,0,0,0-1.62,1.71Z"/><path d="M249.54,117.72l.82,1.24c.22.33.4.63.59,1h0c.19-.35.38-.65.57-1l.82-1.23h1.14l-2,2.8,2,3h-1.2l-.85-1.31c-.23-.33-.42-.66-.63-1h0c-.19.34-.4.65-.61,1l-.84,1.31h-1.17l2.07-3-2-2.84Z"/><path d="M256,116.05v1.67h1.51v.8H256v3.13c0,.72.2,1.13.79,1.13a2.13,2.13,0,0,0,.61-.08l.05.8a2.73,2.73,0,0,1-.94.14,1.49,1.49,0,0,1-1.14-.44,2.17,2.17,0,0,1-.4-1.51v-3.17h-.9v-.8h.9v-1.4Z"/><path d="M263.91,120.57a2.83,2.83,0,0,1-2.89,3.08,2.76,2.76,0,0,1-2.78-3,2.83,2.83,0,0,1,2.87-3.09A2.75,2.75,0,0,1,263.91,120.57Zm-4.61.06c0,1.27.73,2.23,1.77,2.23s1.76-1,1.76-2.25c0-1-.49-2.23-1.74-2.23S259.3,119.53,259.3,120.63Z"/><path d="M264.27,125a16.72,16.72,0,0,0,.72-2.87l1.18-.12a15.08,15.08,0,0,1-1.14,2.91Z"/><path d="M182.55,130.48a.62.62,0,0,1-.67.65.63.63,0,0,1-.64-.65.65.65,0,0,1,.66-.66A.63.63,0,0,1,182.55,130.48Zm-1.17,7.44v-5.8h1.05v5.8Z"/><path d="M184.18,133.69c0-.6,0-1.1,0-1.57h.92l.05.93h0A2,2,0,0,1,187,132a1.71,1.71,0,0,1,1.64,1.17h0a2.35,2.35,0,0,1,.65-.76,2,2,0,0,1,1.28-.41c.77,0,1.91.51,1.91,2.52v3.42h-1v-3.29c0-1.11-.41-1.78-1.26-1.78a1.36,1.36,0,0,0-1.25,1,2,2,0,0,0-.08.52v3.59h-1v-3.48c0-.92-.41-1.59-1.21-1.59a1.44,1.44,0,0,0-1.31,1.05,1.5,1.5,0,0,0-.09.52v3.5h-1Z"/><path d="M197.41,137.92l-.09-.73h0a2.19,2.19,0,0,1-1.78.86,1.65,1.65,0,0,1-1.77-1.67c0-1.4,1.24-2.17,3.49-2.15v-.12a1.21,1.21,0,0,0-1.32-1.35,2.9,2.9,0,0,0-1.51.43l-.24-.69a3.6,3.6,0,0,1,1.9-.52c1.78,0,2.21,1.21,2.21,2.38v2.17a7.44,7.44,0,0,0,.1,1.39Zm-.16-3c-1.15,0-2.46.18-2.46,1.3a.94.94,0,0,0,1,1,1.45,1.45,0,0,0,1.4-1,1,1,0,0,0,.06-.34Z"/><path d="M205,132.12c0,.41,0,.88,0,1.59v3.37a3.35,3.35,0,0,1-.83,2.65,3.06,3.06,0,0,1-2.11.7,3.76,3.76,0,0,1-1.93-.48l.26-.81a3.31,3.31,0,0,0,1.71.46c1.08,0,1.87-.56,1.87-2v-.65h0a2.06,2.06,0,0,1-1.84,1,2.6,2.6,0,0,1-2.47-2.83,2.79,2.79,0,0,1,2.61-3.09,1.92,1.92,0,0,1,1.81,1h0l.05-.87Zm-1.1,2.29a1.77,1.77,0,0,0,0-.48,1.53,1.53,0,0,0-1.48-1.12c-1,0-1.73.85-1.73,2.2,0,1.14.58,2.08,1.72,2.08A1.54,1.54,0,0,0,203.8,136a1.81,1.81,0,0,0,.08-.56Z"/><path d="M207.27,135.21a1.85,1.85,0,0,0,2,2,3.8,3.8,0,0,0,1.61-.3l.18.76a4.67,4.67,0,0,1-1.93.36,2.7,2.7,0,0,1-2.86-2.93c0-1.75,1-3.13,2.73-3.13a2.46,2.46,0,0,1,2.39,2.74,4.88,4.88,0,0,1,0,.49Zm3.1-.76a1.5,1.5,0,0,0-1.47-1.71,1.75,1.75,0,0,0-1.62,1.71Z"/><path d="M212.69,133.69c0-.6,0-1.1,0-1.57h.93l.06.95h0a2.13,2.13,0,0,1,1.92-1.09c.8,0,2,.48,2,2.47v3.47h-1.06v-3.35c0-.93-.35-1.71-1.34-1.71a1.5,1.5,0,0,0-1.42,1.08,1.45,1.45,0,0,0-.07.49v3.49h-1.06Z"/><path d="M218.67,139.4a16.72,16.72,0,0,0,.72-2.87l1.18-.12a15.08,15.08,0,0,1-1.14,2.91Z"/><path d="M229.64,135a2.83,2.83,0,0,1-2.89,3.08,2.76,2.76,0,0,1-2.79-3,2.84,2.84,0,0,1,2.88-3.09A2.75,2.75,0,0,1,229.64,135ZM225,135c0,1.27.73,2.23,1.76,2.23s1.77-.95,1.77-2.25c0-1-.5-2.24-1.74-2.24S225,133.93,225,135Z"/><path d="M232.24,130.45v1.67h1.51v.8h-1.51v3.13c0,.72.21,1.13.79,1.13a2.22,2.22,0,0,0,.62-.08l0,.8a2.63,2.63,0,0,1-.93.14,1.49,1.49,0,0,1-1.14-.44,2.18,2.18,0,0,1-.41-1.52v-3.16h-.9v-.8h.9v-1.4Z"/><path d="M234.94,133.93c0-.69,0-1.28,0-1.81h.92l0,1.13h.05a1.76,1.76,0,0,1,1.61-1.27,1.36,1.36,0,0,1,.3,0v1a1.94,1.94,0,0,0-.36,0,1.49,1.49,0,0,0-1.42,1.35,3.75,3.75,0,0,0,0,.5v3.09h-1.05Z"/><path d="M242,137.92l-.08-.73h0a2.17,2.17,0,0,1-1.77.86,1.66,1.66,0,0,1-1.78-1.67c0-1.4,1.25-2.17,3.49-2.15v-.12a1.2,1.2,0,0,0-1.32-1.35,2.93,2.93,0,0,0-1.51.43l-.24-.69a3.64,3.64,0,0,1,1.91-.52c1.77,0,2.2,1.21,2.2,2.38v2.17a8.4,8.4,0,0,0,.1,1.39Zm-.15-3c-1.16,0-2.46.18-2.46,1.3a.93.93,0,0,0,1,1,1.45,1.45,0,0,0,1.41-1,1.35,1.35,0,0,0,.06-.34Z"/><path d="M251.27,137.7a3.76,3.76,0,0,1-1.66.34,2.76,2.76,0,0,1-2.9-3,3,3,0,0,1,3.12-3.08,3.64,3.64,0,0,1,1.47.29l-.24.82a2.53,2.53,0,0,0-1.23-.28,2.19,2.19,0,0,0,0,4.37,3,3,0,0,0,1.29-.29Z"/><path d="M255.73,137.92l-.09-.73h0a2.16,2.16,0,0,1-1.77.86,1.65,1.65,0,0,1-1.77-1.67c0-1.4,1.24-2.17,3.48-2.15v-.12a1.2,1.2,0,0,0-1.31-1.35,3,3,0,0,0-1.52.43l-.24-.69a3.64,3.64,0,0,1,1.91-.52c1.78,0,2.21,1.21,2.21,2.38v2.17a8.47,8.47,0,0,0,.09,1.39Zm-.16-3c-1.15,0-2.46.18-2.46,1.3a.94.94,0,0,0,1,1,1.45,1.45,0,0,0,1.4-1,1.35,1.35,0,0,0,.06-.34Z"/><path d="M256.88,139.6a1.75,1.75,0,0,0,1.15-.44c.29-.34.4-.8.4-2.19v-4.85h1.05v5.26a3.22,3.22,0,0,1-.69,2.39,2.73,2.73,0,0,1-1.8.66Zm2.72-9.12a.62.62,0,0,1-.66.65.64.64,0,0,1-.65-.65.65.65,0,0,1,.68-.66A.62.62,0,0,1,259.6,130.48Z"/><path d="M264.43,137.92l-.09-.73h0a2.19,2.19,0,0,1-1.78.86,1.65,1.65,0,0,1-1.77-1.67c0-1.4,1.24-2.17,3.49-2.15v-.12a1.21,1.21,0,0,0-1.32-1.35,2.9,2.9,0,0,0-1.51.43l-.25-.69a3.64,3.64,0,0,1,1.91-.52c1.78,0,2.21,1.21,2.21,2.38v2.17a8.47,8.47,0,0,0,.09,1.39Zm-.16-3c-1.15,0-2.46.18-2.46,1.3a.94.94,0,0,0,1,1,1.45,1.45,0,0,0,1.4-1,1,1,0,0,0,.06-.34Z"/><path d="M266.31,139.4a16.72,16.72,0,0,0,.72-2.87l1.18-.12a15.08,15.08,0,0,1-1.14,2.91Z"/><path d="M271.77,137.3a.71.71,0,0,1,.72-.76.76.76,0,1,1-.72.76Z"/><path d="M274.25,137.3a.71.71,0,0,1,.72-.76.76.76,0,1,1-.72.76Z"/><path d="M276.74,137.3a.71.71,0,0,1,.72-.76.76.76,0,1,1-.72.76Z"/></g><g id="borde"><line class="cls-8" x1="289.26" y1="124.5" x2="335.74" y2="124.5"/><polygon class="cls-9" points="290.07 118.42 290.07 130.57 284 124.5 290.07 118.42"/><polygon class="cls-9" points="334.93 118.42 334.93 130.57 341 124.5 334.93 118.42"/><line class="cls-8" x1="134.26" y1="124.5" x2="170.74" y2="124.5"/><polygon class="cls-9" points="135.07 118.42 135.07 130.57 129 124.5 135.07 118.42"/><polygon class="cls-9" points="169.93 118.42 169.93 130.57 176 124.5 169.93 118.42"/><line class="cls-8" x1="225" y1="180.24" x2="225" y2="166.26"/><polygon class="cls-9" points="218.93 179.43 231.07 179.43 225 185.5 218.93 179.43"/><polygon class="cls-9" points="218.93 167.07 231.07 167.07 225 161 218.93 167.07"/><line class="cls-8" x1="222" y1="95.24" x2="222" y2="78.76"/><polygon class="cls-9" points="215.93 94.43 228.07 94.43 222 100.5 215.93 94.43"/><polygon class="cls-9" points="215.93 79.57 228.07 79.57 222 73.5 215.93 79.57"/><path class="cls-10" d="M288.29,107a16,16,0,0,1,2.47-.16,3.88,3.88,0,0,1,2.47.64,2.36,2.36,0,0,1,.87,1.88,2.56,2.56,0,0,1-.75,1.91,3.72,3.72,0,0,1-2.62.86,5.41,5.41,0,0,1-.63,0V115h-1.81Zm1.81,3.67a2.57,2.57,0,0,0,.61,0c1,0,1.58-.49,1.58-1.32s-.52-1.18-1.43-1.18a3,3,0,0,0-.76.07Z"/><path class="cls-10" d="M296.43,112.93l-.58,2.07H294l2.47-8.08h2.4l2.5,8.08h-2l-.62-2.07Zm2.05-1.37-.51-1.72c-.14-.48-.28-1.08-.4-1.56h0c-.12.48-.24,1.1-.37,1.56l-.48,1.72Z"/><path class="cls-10" d="M302.42,107a17.43,17.43,0,0,1,2.47-.16,5.2,5.2,0,0,1,3.31.86,3.57,3.57,0,0,1,1.36,3,4.1,4.1,0,0,1-1.34,3.27,5.79,5.79,0,0,1-3.73,1,15.63,15.63,0,0,1-2.07-.12Zm1.83,6.6a3.08,3.08,0,0,0,.64,0,2.51,2.51,0,0,0,2.73-2.83,2.32,2.32,0,0,0-2.54-2.57,4.33,4.33,0,0,0-.83.07Z"/><path class="cls-10" d="M310.77,107a17.43,17.43,0,0,1,2.47-.16,5.2,5.2,0,0,1,3.31.86,3.58,3.58,0,0,1,1.37,3,4.1,4.1,0,0,1-1.35,3.27,5.77,5.77,0,0,1-3.73,1,15.63,15.63,0,0,1-2.07-.12Zm1.83,6.6a3.08,3.08,0,0,0,.64,0,2.51,2.51,0,0,0,2.73-2.83,2.32,2.32,0,0,0-2.54-2.57,4.33,4.33,0,0,0-.83.07Z"/><path class="cls-10" d="M321,106.92V115h-1.83v-8.08Z"/><path class="cls-10" d="M322.54,115v-8.08h2.13l1.68,3a23.42,23.42,0,0,1,1.32,2.77h0a30,30,0,0,1-.16-3.37v-2.36h1.68V115h-1.92l-1.72-3.12a31.46,31.46,0,0,1-1.41-2.85h0c0,1.07.07,2.21.07,3.53V115Z"/><path class="cls-10" d="M337.57,114.63a9.11,9.11,0,0,1-2.7.45,4.49,4.49,0,0,1-3.28-1.09,3.89,3.89,0,0,1-1.14-2.94c0-2.68,2-4.22,4.61-4.22a5.62,5.62,0,0,1,2.25.4l-.39,1.46a4.47,4.47,0,0,0-1.88-.35,2.64,2.64,0,0,0-.13,5.27,2.52,2.52,0,0,0,.9-.12V111.8h-1.25v-1.43h3Z"/><line class="cls-11" x1="323" y1="66.24" x2="323" y2="44.76"/><polygon class="cls-12" points="316.93 65.43 329.07 65.43 323 71.5 316.93 65.43"/><polygon class="cls-12" points="316.93 45.57 329.07 45.57 323 39.5 316.93 45.57"/><line class="cls-11" x1="330" y1="219.24" x2="330" y2="194.76"/><polygon class="cls-12" points="323.93 218.43 336.07 218.43 330 224.5 323.93 218.43"/><polygon class="cls-12" points="323.93 195.57 336.07 195.57 330 189.5 323.93 195.57"/><line class="cls-11" x1="435.74" y1="146.5" x2="351.26" y2="146.5"/><polygon class="cls-12" points="434.93 152.57 434.93 140.43 441 146.5 434.93 152.57"/><polygon class="cls-12" points="352.07 152.57 352.07 140.43 346 146.5 352.07 152.57"/><line class="cls-11" x1="120.74" y1="143.5" x2="36.26" y2="143.5"/><polygon class="cls-12" points="119.93 149.57 119.93 137.43 126 143.5 119.93 149.57"/><polygon class="cls-12" points="37.07 149.57 37.07 137.43 31 143.5 37.07 149.57"/><path class="cls-12" d="M375.13,131.41c0-1-.07-2.15-.07-3.33h0c-.25,1-.59,2.19-.9,3.13l-1,3.16h-1.43l-.86-3.13c-.27-1-.54-2.1-.73-3.16h0c0,1.09-.08,2.34-.14,3.35l-.15,3.07h-1.69l.52-8.08h2.43l.79,2.69c.26.94.51,1.95.69,2.9h0c.23-.94.51-2,.77-2.91l.86-2.68h2.39l.45,8.08h-1.79Z"/><path class="cls-12" d="M380.29,132.43l-.58,2.07h-1.89l2.47-8.08h2.4l2.51,8.08h-2l-.62-2.07Zm2-1.37-.5-1.72c-.15-.48-.29-1.08-.41-1.56h0c-.12.48-.24,1.1-.38,1.56l-.48,1.72Z"/><path class="cls-12" d="M386.28,126.52a17,17,0,0,1,2.43-.16,4.19,4.19,0,0,1,2.62.63,2.06,2.06,0,0,1,.74,1.69,2.14,2.14,0,0,1-1.43,2v0a2,2,0,0,1,1.08,1.51c.26.91.51,2,.66,2.28h-1.87a10.55,10.55,0,0,1-.56-1.88c-.22-1-.56-1.29-1.31-1.3h-.55v3.18h-1.81Zm1.81,3.48h.72c.91,0,1.45-.45,1.45-1.16s-.5-1.12-1.34-1.13a4.94,4.94,0,0,0-.83.06Z"/><path class="cls-12" d="M400.1,134.13a9.11,9.11,0,0,1-2.7.45,4.49,4.49,0,0,1-3.28-1.09,3.85,3.85,0,0,1-1.14-2.94c0-2.68,2-4.22,4.61-4.22a5.62,5.62,0,0,1,2.25.4l-.39,1.46a4.47,4.47,0,0,0-1.88-.35,2.64,2.64,0,0,0-.13,5.27,2.52,2.52,0,0,0,.9-.12V131.3h-1.25v-1.43h3Z"/><path class="cls-12" d="M403.37,126.42v8.08h-1.84v-8.08Z"/><path class="cls-12" d="M405,134.5v-8.08h2.14l1.68,3a23.36,23.36,0,0,1,1.31,2.77h0a30,30,0,0,1-.16-3.37v-2.36h1.68v8.08h-1.92L408,131.38a31.46,31.46,0,0,1-1.41-2.85h0c.05,1.07.07,2.21.07,3.53v2.43Z"/><line class="cls-13" x1="101" y1="65.5" x2="121.71" y2="70.47"/><polygon class="cls-14" points="122.23 65.35 119.85 75.27 126 71.5 122.23 65.35"/></g><g id="margen"><line class="cls-15" x1="85" y1="37.5" x2="402" y2="38.5"/><line class="cls-15" x1="402" y1="19.5" x2="402" y2="38.5"/><line class="cls-15" x1="85" y1="37.5" x2="85" y2="19.5"/><path d="M205.32,25.37c0,2.79-1.69,4.26-3.75,4.26s-3.64-1.65-3.64-4.1,1.6-4.25,3.76-4.25S205.32,23,205.32,25.37Zm-6.27.14c0,1.72.93,3.27,2.58,3.27s2.59-1.52,2.59-3.36c0-1.61-.84-3.28-2.58-3.28S199.05,23.73,199.05,25.51Z"/><path d="M208.12,22V23.7h1.51v.8h-1.51v3.13c0,.72.2,1.13.79,1.13a2.08,2.08,0,0,0,.61-.08l0,.8a2.69,2.69,0,0,1-.94.14,1.5,1.5,0,0,1-1.14-.44,2.17,2.17,0,0,1-.4-1.51V24.5h-.9v-.8h.9V22.3Z"/><path d="M210.82,25.51c0-.69,0-1.28,0-1.81h.92l0,1.13h.05a1.75,1.75,0,0,1,1.61-1.27,1.36,1.36,0,0,1,.3,0v1a1.94,1.94,0,0,0-.36,0,1.47,1.47,0,0,0-1.42,1.35,3.68,3.68,0,0,0,0,.5V29.5h-1Z"/><path d="M217.9,29.5l-.09-.73h0a2.19,2.19,0,0,1-1.78.86A1.65,1.65,0,0,1,214.23,28c0-1.4,1.25-2.17,3.49-2.15v-.12a1.2,1.2,0,0,0-1.32-1.35,2.93,2.93,0,0,0-1.51.43l-.24-.69a3.6,3.6,0,0,1,1.9-.52c1.78,0,2.21,1.21,2.21,2.38v2.17a8.4,8.4,0,0,0,.1,1.39Zm-.16-3c-1.15,0-2.46.18-2.46,1.3a.94.94,0,0,0,1,1,1.45,1.45,0,0,0,1.4-1,1,1,0,0,0,.06-.34Z"/><path d="M227.15,29.28a3.81,3.81,0,0,1-1.67.34,2.76,2.76,0,0,1-2.89-3,2.94,2.94,0,0,1,3.12-3.08,3.4,3.4,0,0,1,1.46.3l-.24.81a2.47,2.47,0,0,0-1.22-.27,2,2,0,0,0-2.05,2.19,2,2,0,0,0,2,2.17,3,3,0,0,0,1.3-.29Z"/><path d="M231.6,29.5l-.08-.73h0a2.17,2.17,0,0,1-1.77.86A1.66,1.66,0,0,1,227.93,28c0-1.4,1.25-2.17,3.49-2.15v-.12a1.2,1.2,0,0,0-1.32-1.35,2.93,2.93,0,0,0-1.51.43l-.24-.69a3.64,3.64,0,0,1,1.91-.52c1.77,0,2.2,1.21,2.2,2.38v2.17a8.4,8.4,0,0,0,.1,1.39Zm-.15-3c-1.16,0-2.46.18-2.46,1.3a.93.93,0,0,0,1,1,1.45,1.45,0,0,0,1.41-1,1.35,1.35,0,0,0,.06-.34Z"/><path d="M232.76,31.18a1.75,1.75,0,0,0,1.15-.44c.29-.34.39-.8.39-2.19V23.7h1.06V29a3.17,3.17,0,0,1-.7,2.39,2.7,2.7,0,0,1-1.8.66Zm2.72-9.12a.62.62,0,0,1-.66.65.63.63,0,0,1-.65-.65.65.65,0,0,1,.67-.66A.62.62,0,0,1,235.48,22.06Z"/><path d="M240.3,29.5l-.08-.73h0a2.17,2.17,0,0,1-1.77.86A1.66,1.66,0,0,1,236.63,28c0-1.4,1.25-2.17,3.49-2.15v-.12a1.2,1.2,0,0,0-1.32-1.35,2.93,2.93,0,0,0-1.51.43l-.24-.69a3.64,3.64,0,0,1,1.91-.52c1.77,0,2.2,1.21,2.2,2.38v2.17a8.4,8.4,0,0,0,.1,1.39Zm-.15-3c-1.16,0-2.46.18-2.46,1.3a.93.93,0,0,0,1,1,1.45,1.45,0,0,0,1.41-1,1.35,1.35,0,0,0,.06-.34Z"/><path d="M247.71,21.18a7.86,7.86,0,0,0-1.52,4.9A8,8,0,0,0,247.71,31h-.83a7.71,7.71,0,0,1-1.57-4.87,7.85,7.85,0,0,1,1.57-4.9Z"/><path d="M253.84,21v7c0,.52,0,1.1,0,1.5h-.94l-.05-1h0a2.13,2.13,0,0,1-2,1.14c-1.41,0-2.49-1.19-2.49-2.95,0-1.93,1.19-3.12,2.61-3.12a2,2,0,0,1,1.75.89h0V21Zm-1.06,5.08a1.77,1.77,0,0,0-.05-.45,1.54,1.54,0,0,0-1.52-1.22c-1.09,0-1.74,1-1.74,2.24s.58,2.15,1.72,2.15a1.59,1.59,0,0,0,1.54-1.26,1.64,1.64,0,0,0,.05-.45Z"/><path d="M256.77,22.06a.63.63,0,0,1-.68.65.63.63,0,0,1-.63-.65.64.64,0,0,1,.66-.66A.63.63,0,0,1,256.77,22.06Zm-1.18,7.44V23.7h1.06v5.8Z"/><path d="M258.81,23.7,260,27a15.39,15.39,0,0,1,.46,1.48h0c.13-.48.3-1,.49-1.48l1.13-3.26h1.1l-2.28,5.8h-1l-2.21-5.8Z"/><path d="M263,31a17.7,17.7,0,0,0,.72-2.87l1.17-.12a13.89,13.89,0,0,1-1.14,2.91Z"/><path d="M268.73,25.59c0-.74,0-1.34-.05-1.89h.95l.05,1h0a2.28,2.28,0,0,1,2.06-1.13c1.41,0,2.46,1.19,2.46,3,0,2.09-1.27,3.12-2.64,3.12a2,2,0,0,1-1.78-.91h0v3.15h-1Zm1,1.55a2.82,2.82,0,0,0,.05.43,1.63,1.63,0,0,0,1.59,1.23c1.11,0,1.76-.91,1.76-2.24,0-1.16-.61-2.16-1.73-2.16a1.68,1.68,0,0,0-1.59,1.31,1.56,1.56,0,0,0-.08.43Z"/><path d="M274.59,31a18.8,18.8,0,0,0,.72-2.87l1.17-.12a13.89,13.89,0,0,1-1.14,2.91Z"/><path d="M280.05,28.88a.71.71,0,0,1,.72-.76.76.76,0,1,1-.72.76Z"/><path d="M282.53,28.88a.71.71,0,0,1,.72-.76.76.76,0,1,1-.72.76Z"/><path d="M285,28.88a.71.71,0,0,1,.72-.76.76.76,0,1,1-.72.76Z"/><path d="M287.11,31a8.07,8.07,0,0,0,1.52-4.9,7.89,7.89,0,0,0-1.52-4.87h.82a7.62,7.62,0,0,1,1.57,4.88A7.76,7.76,0,0,1,287.93,31Z"/><line class="cls-15" x1="29" y1="222.5" x2="442" y2="225.5"/><line class="cls-15" x1="29" y1="223.5" x2="27" y2="16.5"/><line class="cls-15" x1="442" y1="226.5" x2="441" y2="16.5"/><path d="M171.41,232.92h1.05v7.2h3.45V241h-4.5Z"/><path d="M179.19,232.69l-1.47,1.71H177l1.05-1.71ZM177,241v-5.8h1.06V241Z"/><path d="M179.85,236.77c0-.6,0-1.1,0-1.57h.92l.05.93h0a2,2,0,0,1,1.82-1.07,1.71,1.71,0,0,1,1.64,1.17h0a2.33,2.33,0,0,1,.64-.76,2,2,0,0,1,1.29-.41c.77,0,1.9.51,1.9,2.52V241h-1v-3.29c0-1.11-.4-1.78-1.26-1.78a1.35,1.35,0,0,0-1.24,1,1.61,1.61,0,0,0-.09.52V241h-1v-3.48c0-.92-.41-1.59-1.21-1.59a1.44,1.44,0,0,0-1.31,1,1.49,1.49,0,0,0-.08.52V241h-1Z"/><path d="M191,233.56a.62.62,0,0,1-.67.65.63.63,0,0,1-.64-.65.65.65,0,0,1,.66-.66A.63.63,0,0,1,191,233.56ZM189.85,241v-5.8h1.06V241Z"/><path d="M193.93,233.53v1.67h1.52v.8h-1.52v3.13c0,.72.21,1.13.8,1.13a2.13,2.13,0,0,0,.61-.08l0,.8a2.73,2.73,0,0,1-.94.14,1.49,1.49,0,0,1-1.14-.44,2.17,2.17,0,0,1-.41-1.51V236H192v-.8h.9v-1.4Z"/><path d="M197.15,238.29a1.85,1.85,0,0,0,2,2,3.8,3.8,0,0,0,1.61-.3l.18.76a4.67,4.67,0,0,1-1.93.36,2.7,2.7,0,0,1-2.86-2.93c0-1.75,1-3.13,2.73-3.13a2.46,2.46,0,0,1,2.39,2.74,4.88,4.88,0,0,1,0,.49Zm3.1-.76a1.5,1.5,0,0,0-1.47-1.71,1.75,1.75,0,0,0-1.62,1.71Z"/><path d="M202.43,239.92a2.79,2.79,0,0,0,1.39.42c.77,0,1.13-.38,1.13-.86s-.3-.78-1.08-1.07c-1-.37-1.53-.95-1.53-1.64a1.79,1.79,0,0,1,2-1.71,2.94,2.94,0,0,1,1.43.36l-.27.77a2.31,2.31,0,0,0-1.19-.34c-.62,0-1,.36-1,.8s.35.69,1.11,1c1,.38,1.52.89,1.52,1.75,0,1-.79,1.74-2.17,1.74a3.3,3.3,0,0,1-1.63-.4Z"/><path d="M214.88,232.48v7c0,.52,0,1.1.05,1.5h-1l0-1h0a2.14,2.14,0,0,1-2,1.14c-1.4,0-2.48-1.19-2.48-2.95,0-1.93,1.19-3.12,2.6-3.12a1.93,1.93,0,0,1,1.75.89h0v-3.47Zm-1,5.08a1.77,1.77,0,0,0-.05-.45,1.55,1.55,0,0,0-1.52-1.22c-1.09,0-1.74,1-1.74,2.24s.57,2.15,1.71,2.15a1.59,1.59,0,0,0,1.55-1.26,1.64,1.64,0,0,0,.05-.45Z"/><path d="M217.23,238.29a1.85,1.85,0,0,0,2,2,3.75,3.75,0,0,0,1.6-.3l.18.76a4.63,4.63,0,0,1-1.93.36,2.7,2.7,0,0,1-2.85-2.93c0-1.75,1-3.13,2.72-3.13a2.46,2.46,0,0,1,2.4,2.74,2.81,2.81,0,0,1,0,.49Zm3.09-.76a1.5,1.5,0,0,0-1.46-1.71,1.74,1.74,0,0,0-1.62,1.71Z"/><path d="M225.19,232.48h1.06V241h-1.06Z"/><path d="M231.24,241l-.08-.73h0a2.17,2.17,0,0,1-1.77.86,1.66,1.66,0,0,1-1.78-1.67c0-1.4,1.25-2.17,3.49-2.15v-.12a1.2,1.2,0,0,0-1.32-1.35,2.93,2.93,0,0,0-1.51.43l-.24-.69a3.64,3.64,0,0,1,1.91-.52c1.77,0,2.2,1.21,2.2,2.38v2.17a8.4,8.4,0,0,0,.1,1.39Zm-.16-3c-1.15,0-2.45.18-2.45,1.3a.93.93,0,0,0,1,1,1.43,1.43,0,0,0,1.4-1,1,1,0,0,0,.06-.34Z"/><path d="M236.35,237.09c0-.74,0-1.34,0-1.89h.94l.05,1h0a2.27,2.27,0,0,1,2.06-1.13c1.4,0,2.46,1.19,2.46,2.95,0,2.09-1.27,3.12-2.64,3.12a2,2,0,0,1-1.79-.91h0v3.16h-1.05Zm1.05,1.55a2,2,0,0,0,0,.43A1.62,1.62,0,0,0,239,240.3c1.11,0,1.76-.91,1.76-2.24,0-1.16-.61-2.16-1.73-2.16a1.69,1.69,0,0,0-1.59,1.31,1.55,1.55,0,0,0-.07.43Z"/><path d="M246.4,241l-.09-.73h0a2.19,2.19,0,0,1-1.78.86,1.65,1.65,0,0,1-1.77-1.67c0-1.4,1.24-2.17,3.49-2.15v-.12a1.21,1.21,0,0,0-1.32-1.35,2.9,2.9,0,0,0-1.51.43l-.24-.69a3.6,3.6,0,0,1,1.9-.52c1.78,0,2.21,1.21,2.21,2.38v2.17a7.44,7.44,0,0,0,.1,1.39Zm-.16-3c-1.15,0-2.46.18-2.46,1.3a.94.94,0,0,0,1,1,1.45,1.45,0,0,0,1.4-1,1,1,0,0,0,.06-.34Zm.53-5.35-1.46,1.71h-.76l1-1.71Z"/><path d="M254,235.2c0,.42-.05.88-.05,1.59v3.37a3.31,3.31,0,0,1-.83,2.65,3.06,3.06,0,0,1-2.11.7,3.78,3.78,0,0,1-1.93-.48l.26-.81a3.31,3.31,0,0,0,1.71.46c1.08,0,1.87-.56,1.87-2V240h0a2.06,2.06,0,0,1-1.84,1,2.6,2.6,0,0,1-2.47-2.83,2.79,2.79,0,0,1,2.61-3.09,1.92,1.92,0,0,1,1.81,1h0l0-.87Zm-1.09,2.29a1.75,1.75,0,0,0-.06-.48,1.53,1.53,0,0,0-1.48-1.12c-1,0-1.73.85-1.73,2.2,0,1.13.58,2.08,1.72,2.08a1.54,1.54,0,0,0,1.46-1.08,1.82,1.82,0,0,0,.09-.56Z"/><path d="M256.78,233.56a.66.66,0,0,1-1.31,0,.65.65,0,0,1,.66-.66A.63.63,0,0,1,256.78,233.56ZM255.6,241v-5.8h1.06V241Z"/><path d="M258.41,236.77c0-.6,0-1.1-.05-1.57h.94l.06,1h0a2.14,2.14,0,0,1,1.92-1.09c.8,0,2.05.48,2.05,2.47V241H262.3v-3.35c0-.93-.35-1.71-1.35-1.71a1.5,1.5,0,0,0-1.41,1.08,1.45,1.45,0,0,0-.07.49V241h-1.06Z"/><path d="M268.28,241l-.08-.73h0a2.16,2.16,0,0,1-1.77.86,1.66,1.66,0,0,1-1.78-1.67c0-1.4,1.25-2.17,3.49-2.15v-.12a1.2,1.2,0,0,0-1.31-1.35,3,3,0,0,0-1.52.43l-.24-.69a3.64,3.64,0,0,1,1.91-.52c1.78,0,2.21,1.21,2.21,2.38v2.17a8.47,8.47,0,0,0,.09,1.39Zm-.15-3c-1.15,0-2.46.18-2.46,1.3a.94.94,0,0,0,1,1,1.45,1.45,0,0,0,1.4-1,1.35,1.35,0,0,0,.06-.34Z"/><path d="M275.69,232.68a7.85,7.85,0,0,0-1.51,4.9,8.08,8.08,0,0,0,1.51,4.87h-.83a7.71,7.71,0,0,1-1.57-4.87,7.85,7.85,0,0,1,1.57-4.9Z"/><path d="M276.76,241c0-.4.05-1,.05-1.5v-7h1v3.65h0a2.18,2.18,0,0,1,2-1.07c1.44,0,2.46,1.2,2.45,3,0,2.07-1.31,3.1-2.6,3.1a2.08,2.08,0,0,1-1.95-1.09h0l-.05,1Zm1.09-2.33a1.6,1.6,0,0,0,0,.39,1.62,1.62,0,0,0,1.58,1.23c1.1,0,1.76-.9,1.76-2.23,0-1.16-.6-2.16-1.72-2.16a1.69,1.69,0,0,0-1.61,1.3,2.34,2.34,0,0,0-.06.43Z"/><path d="M288.89,238.05a2.83,2.83,0,0,1-2.89,3.08,2.76,2.76,0,0,1-2.79-3,2.84,2.84,0,0,1,2.88-3.09A2.75,2.75,0,0,1,288.89,238.05Zm-4.61.06c0,1.27.73,2.23,1.76,2.23s1.77-1,1.77-2.25c0-1-.49-2.24-1.74-2.24S284.28,237,284.28,238.11Z"/><path d="M295.23,232.48v7c0,.52,0,1.1,0,1.5h-.95l0-1h0a2.14,2.14,0,0,1-2,1.14c-1.4,0-2.48-1.19-2.48-2.95,0-1.93,1.19-3.12,2.6-3.12a2,2,0,0,1,1.76.89h0v-3.47Zm-1.05,5.08a1.77,1.77,0,0,0-.05-.45,1.54,1.54,0,0,0-1.52-1.22c-1.09,0-1.74,1-1.74,2.24s.57,2.15,1.71,2.15a1.59,1.59,0,0,0,1.55-1.26,1.64,1.64,0,0,0,.05-.45Z"/><path d="M297.37,235.2l1.27,3.43c.14.38.28.83.38,1.18h0c.11-.35.23-.79.37-1.21l1.15-3.4h1.12l-1.58,4.13c-.76,2-1.28,3-2,3.64a2.9,2.9,0,0,1-1.29.68l-.26-.89a2.77,2.77,0,0,0,.92-.51,3.22,3.22,0,0,0,.89-1.18,1,1,0,0,0,.08-.25.91.91,0,0,0-.07-.28l-2.15-5.34Z"/><path d="M302,242.45a8.11,8.11,0,0,0,1.51-4.9,8,8,0,0,0-1.51-4.87h.81a7.62,7.62,0,0,1,1.57,4.88,7.76,7.76,0,0,1-1.57,4.89Z"/></g></svg>